<?xml version="1.0" encoding="utf-8"?>
<svg viewBox="0 0 888 623.12839" xmlns="http://www.w3.org/2000/svg">
  <circle cx="787.19149" cy="69.11547" r="47.49974" fill="#ff6584"/>
  <path d="M591.77937,374.439l-37.216-73.0728,37.32946,63.94826.33892-26.15546-25.57449-52.82266,25.66886,45.90726.60884-47.038-27.8034-42.27543,27.89467,34.87832,2.03175-85.86486.01043-.35661.0007.36261-.32037,108.947L625.44293,256.794l-30.60709,53.34067,1.21222,52.58712.12562-1.3902,35.39412-46.52634-35.43593,51.44885.15359,6.577.05923.10375-.04395.53695,1.60488,69.60212q-3.47451.145-7.018.118l.06752-5.41466-32.29191-53.29648,32.35808,48.11974Z" transform="matrix(1, 0, 0, 1, -156, -138.435806)" fill="#cbcbcb"/>
  <path d="M914.40051,321.28774l-37.216-73.0728L914.514,312.16321l.3389-26.15547-25.57454-52.82266,25.66886,45.90726.60882-47.03795L887.75268,189.779l27.89467,34.87832,2.03176-85.86487.01041-.35661.00072.3626-.32037,108.947,30.69424-44.10256L917.457,256.98349l1.21221,52.58711.1256-1.3902L954.189,261.65405l-35.43593,51.44887.15361,6.577.05922.10375-.044.537,1.6049,69.60211q-3.47454.14505-7.018.118l.06753-5.41468-32.29193-53.2965,32.3581,48.11974Z" transform="matrix(1, 0, 0, 1, -156, -138.435806)" fill="#3f3d56"/>
  <path d="M273.74194,572.38927a597.57651,597.57651,0,0,1,68.04566-43.38941c66.09948-36.47436,147.38562-67.662,239.79748-91.82235q9.52562-2.49834,19.21033-4.88443,20.56723-5.09038,41.81738-9.69406,5.24946-1.1322,10.52686-2.25513,29.57346-6.2178,60.326-11.48126c.41171-.07489.82342-.14042,1.2445-.20591q7.21913-1.24914,14.5037-2.41418c97.0343-15.76688,202.19073-24.441,312.05385-24.572.9076-.00937,1.82466-.00937,2.73228-.00937v379.903H156C156,692.68572,198.83734,628.09282,273.74194,572.38927Z" fill="#f1f1f1" transform="matrix(1, 0, 0, 1, -156, -138.435806)"/>
  <path d="M450.18176,615.72264c37.84058-28.1372,86.29224-53.33618,143.025-74.58642q9.446-3.55105,19.201-6.93372c.90765-.31811,1.82464-.63629,2.74163-.95441q12.4217-4.2669,25.32062-8.3092,21.79761-6.81207,44.83039-12.87555,16.48735-4.35581,33.555-8.29987,5.48322-1.28191,11.01339-2.48907,12.57148-2.79776,25.4423-5.35229C843.035,478.44286,940.85541,468.68327,1044,468.68327V761.56419H359.40723C359.40723,708.462,392.43817,658.66283,450.18176,615.72264Z" transform="matrix(1, 0, 0, 1, -156, -138.435806)" fill="#6c63ff"/>
  <path d="M432.23444,746.36815l1.69366.80469a183.17229,183.17229,0,0,1,20.94147-33.54566l-1.47846-1.15094A185.611,185.611,0,0,0,432.23444,746.36815Zm48.19909-63.27362,1.282,1.36615a335.313,335.313,0,0,1,28.91375-24.01062c.56146-.42108,1.1322-.84216,1.703-1.26325l-1.11353-1.50647c-.5708.42109-1.14154.84217-1.7124,1.27259A338.72729,338.72729,0,0,0,480.43353,683.09453ZM544.465,635.588l.96374,1.6c10.91052-6.58747,22.61639-13.06263,34.78076-19.24775l-.8515-1.675C567.15619,622.4785,555.41284,628.9818,544.465,635.588Zm70.99322-36.28735.7392,1.7124c11.81817-5.13709,24.23523-10.15253,36.88617-14.89667l-.655-1.74982C639.74005,589.12,627.30438,594.14482,615.45819,599.30065Zm74.61441-28.08094.57077,1.7779c3.31244-1.07612,6.63428-2.13343,9.9935-3.1908,9.1514-2.854,18.60217-5.66119,28.09976-8.3186l-.50531-1.806c-9.51629,2.66674-18.98578,5.47393-28.15585,8.34662Q695.04126,569.60557,690.0726,571.21971Zm88.45374-24.385c-3.92066.89832-7.86939,1.83405-11.72452,2.76984l.43976,1.81531c3.85519-.92639,7.79458-1.86212,11.71527-2.76978,3.71478-.86084,7.41089-1.70294,10.99472-2.47961,5.343-1.18842,10.77017-2.3581,16.12247-3.46222l-.37427-1.834c-5.371,1.11347-10.79828,2.27375-16.15058,3.46216-3.58383.786-7.29861,1.62811-11.02282,2.49835Zm66.32394-13.42749.32755,1.84339c12.88485-2.25513,26.116-4.36988,39.30969-6.27875l-.27139-1.85272C871.00375,529.03734,857.76328,531.15209,844.85028,533.40721Zm78.90009-11.44391.21521,1.86206c13.044-1.51586,26.36869-2.88208,39.60913-4.07043l-.16843-1.86206C950.15648,519.08122,936.81308,520.44743,923.75037,521.9633Zm79.41467-7.09283.11227,1.87146c13.13758-.83276,26.51839-1.50647,39.76819-2.00244l-.0655-1.87146C1029.70213,513.37334,1016.312,514.047,1003.165,514.87047Z" transform="matrix(1, 0, 0, 1, -156, -138.435806)" fill="#fff"/>
  <path d="M628.52075,659.52373C711.2012,598.03746,866.3064,556.6411,1044,556.6411V761.56419H565.004C565.004,724.41606,588.11633,689.56975,628.52075,659.52373Z" transform="matrix(1, 0, 0, 1, -156, -138.435806)" fill="#f1f1f1"/>
  <path d="M273.74188,572.38927l176.4397,43.33331,178.33917,43.80115L1044,761.56419H156C156,692.68572,198.83734,628.09282,273.74188,572.38927Z" transform="matrix(1, 0, 0, 1, -156, -138.435806)" opacity="0.2" style="isolation:isolate"/>
  <rect x="512.591" y="240.827" width="129.18" height="3.172" fill="#3f3d56" id="rect170" style=""/>
  <rect x="512.591" y="256.685" width="129.18" height="3.172" fill="#3f3d56" id="rect172" style=""/>
  <rect x="512.591" y="271.749" width="129.18" height="4.756" fill="#3f3d56" id="rect174" style=""/>
  <rect x="46.756" y="133.456" width="91.865" height="2.87" transform="matrix(0.002128, -0.999998, 0.999996, 0.002794, 399.033112, 369.439148)" fill="#3f3d56" id="rect176" style=""/>
  <rect x="143.798" y="133.663" width="91.865" height="2.87" transform="matrix(0.002128, -0.999998, 0.999996, 0.002794, 483.304474, 466.71756)" fill="#3f3d56" id="rect178" style=""/>
  <path d="M 727.763 219.489 C 723.894 223.962 714.555 227.507 710.652 223.074 C 706.748 218.64 709.758 207.907 713.628 203.434 C 719.021 197.199 728.281 199.992 730.297 208.462 C 731.232 212.392 730.266 216.597 727.763 219.489 Z" fill="#6c63ff" id="path180" style=""/>
  <path d="M 710.657 224.628 C 710.538 223.832 709.991 223.21 709.295 223.08 L 710.645 221.519 L 712.008 223.067 L 710.657 224.628 Z" fill="#6c63ff" id="path182" style=""/>
  <path d="M 711.33 223.972 C 710.638 223.723 710.094 223.11 709.866 222.322 L 710.138 222.22 C 710.338 222.906 710.813 223.441 711.416 223.658 L 711.33 223.972 Z" fill="#2f2e41" id="path184" style=""/>
  <polygon points="681.705 256.686 681.501 256.454 710.289 223.334 710.494 223.566 681.705 256.686" fill="#2f2e41" id="polygon186" style=""/>
  <ellipse cx="1111.927" cy="315.332" rx="2.71" ry="2.235" transform="matrix(0.65421, -0.756313, 0.666925, 0.757549, -211.14859, 813.470215)" fill="#fff" opacity="0.4" id="ellipse188" style=""/>
  <path d="M 715.136 207.292 C 712.551 212.85 704.492 219.317 699.642 216.354 C 694.793 213.391 694.987 202.119 697.574 196.561 C 701.177 188.815 710.748 188.445 714.801 195.894 C 716.681 199.352 716.809 203.696 715.136 207.292 Z" fill="#6c63ff" id="path190" style=""/>
  <path d="M 700.038 217.841 C 699.724 217.117 699.043 216.701 698.345 216.806 L 699.247 214.867 L 700.94 215.901 L 700.038 217.841 Z" fill="#6c63ff" id="path192" style=""/>
  <path d="M 700.518 216.991 C 699.792 216.982 699.117 216.573 698.702 215.893 L 698.937 215.705 C 699.3 216.297 699.889 216.653 700.521 216.661 L 700.518 216.991 Z" fill="#2f2e41" id="path194" style=""/>
  <polygon points="680.336 258.074 680.082 257.92 699.36 216.723 699.615 216.878 680.336 258.074" fill="#2f2e41" id="polygon196" style=""/>
  <ellipse cx="1052.502" cy="274.616" rx="2.808" ry="2.156" transform="matrix(0.42183, -0.906675, 0.858818, 0.524692, 32.157967, 1010.102295)" fill="#fff" opacity="0.4" id="ellipse198" style=""/>
  <path d="M 708.785 238.271 C 704.917 242.744 695.577 246.289 691.674 241.856 C 687.771 237.422 690.781 226.688 694.65 222.216 C 700.043 215.981 709.304 218.774 711.318 227.244 C 712.254 231.175 711.288 235.378 708.785 238.271 Z" fill="#6c63ff" id="path200" style=""/>
  <path d="M 691.679 243.41 C 691.561 242.613 691.013 241.991 690.317 241.862 L 691.667 240.301 L 693.03 241.849 L 691.679 243.41 Z" fill="#6c63ff" id="path202" style=""/>
  <path d="M 692.352 242.754 C 691.661 242.506 691.116 241.891 690.888 241.104 L 691.161 241.002 C 691.36 241.689 691.836 242.223 692.438 242.44 L 692.352 242.754 Z" fill="#2f2e41" id="path204" style=""/>
  <rect x="239.582" y="117.962" width="19.61" height="0.306" transform="matrix(0.654405, -0.756145, 0.666729, 0.757721, 443.048248, 348.722778)" fill="#2f2e41" id="rect206" style=""/>
  <ellipse cx="1034.729" cy="382.003" rx="2.71" ry="2.235" transform="matrix(0.65421, -0.756313, 0.666925, 0.757549, -224.087296, 723.359924)" fill="#fff" opacity="0.4" id="ellipse208" style=""/>
  <path d="M 668.323 190.043 C 665.397 184.376 659.609 184.113 659.609 184.113 C 659.609 184.113 653.968 183.287 650.349 191.915 C 646.977 199.956 642.322 207.723 649.6 209.604 L 650.915 204.916 L 651.728 209.954 C 652.765 210.039 653.805 210.06 654.843 210.015 C 662.637 209.727 670.06 210.099 669.821 206.894 C 669.503 202.634 671.138 195.494 668.323 190.043 Z" fill="#2f2e41" id="path210" style=""/>
  <path d="M 661.617 314.272 C 661.364 315.565 660.913 316.821 660.889 318.145 C 660.865 319.468 661.423 320.943 662.528 321.328 C 663.055 321.465 663.603 321.471 664.133 321.344 C 664.719 321.254 665.34 321.145 665.784 320.7 C 666.407 320.074 666.48 319.01 666.486 318.061 C 666.514 313.339 666.013 308.636 665.512 303.949 C 665.504 303.877 662.829 303.805 662.56 303.947 C 661.781 304.356 661.851 305.364 661.841 306.22 C 661.808 308.904 662.134 311.624 661.617 314.272 Z" fill="#2f2e41" id="path212" style=""/>
  <path d="M 643.467 314.272 C 643.718 315.565 644.169 316.821 644.193 318.145 C 644.218 319.468 643.66 320.943 642.556 321.328 C 642.027 321.465 641.479 321.471 640.949 321.344 C 640.365 321.254 639.743 321.145 639.298 320.7 C 638.674 320.074 638.602 319.01 638.598 318.061 C 638.569 313.339 639.07 308.636 639.57 303.949 C 639.577 303.877 642.254 303.805 642.523 303.947 C 643.302 304.356 643.232 305.364 643.242 306.22 C 643.274 308.904 642.948 311.624 643.467 314.272 Z" fill="#2f2e41" id="path214" style=""/>
  <path d="M 652.423 241.721 C 653.724 242.432 655.211 242.525 656.653 242.507 C 659.847 242.466 663.022 241.943 666.097 240.95 C 666.686 240.791 667.251 240.53 667.772 240.175 C 667.903 240.095 668.007 239.965 668.065 239.809 C 668.092 239.684 668.092 239.552 668.067 239.426 L 667.569 235.626 C 667.591 235.312 667.335 235.07 667.071 235.149 C 664.363 235.164 661.658 235.346 658.967 235.694 C 657.6 235.871 656.238 236.091 654.881 236.354 C 654.162 236.494 652.075 236.519 651.711 237.4 C 651.494 237.923 651.933 238.844 652.042 239.354 C 652.104 239.636 652.274 241.64 652.423 241.721 Z" fill="#ffb8b8" id="path216" style=""/>
  <path d="M 658.496 240.782 C 656.209 240.684 653.953 240.161 651.814 239.232 C 651.72 239.191 651.597 239.157 651.534 239.245 C 651.506 239.288 651.492 239.34 651.49 239.394 L 650.941 244.147 C 650.371 249.079 648.869 253.955 647.887 258.8 C 647.285 261.774 646.682 264.749 646.052 267.716 C 645.411 270.737 644.741 273.755 643.894 276.709 C 641.573 284.793 637.959 292.311 633.236 298.878 C 632.69 299.635 632.095 300.509 632.207 301.483 C 632.353 302.744 633.563 303.402 634.607 303.835 C 633.641 304.325 633.701 306.071 634.473 306.898 C 635.244 307.725 636.378 307.879 637.43 307.994 L 641.029 308.384 C 641.95 308.483 642.917 308.575 643.764 308.147 C 644.311 307.871 644.763 307.396 645.294 307.081 C 647.17 305.968 649.408 307.055 651.402 307.851 C 654.188 308.961 657.123 309.487 660.069 309.404 C 661.301 309.369 662.737 309.075 663.299 307.82 C 663.516 307.335 663.563 306.774 663.745 306.271 C 664.322 304.863 665.79 304.265 667.012 304.941 C 668.032 305.57 668.522 306.97 669.487 307.7 C 670.264 308.287 671.242 308.365 672.17 308.427 L 677.454 308.776 C 677.874 307.913 677.824 306.848 677.324 306.041 C 681.368 306.128 683.978 301.165 682.022 297.109 C 681.833 296.719 681.608 296.355 681.351 296.022 C 680.603 295.057 680.053 293.911 679.744 292.67 C 678.025 285.293 677.882 277.538 676.297 270.121 C 675.981 268.637 675.607 267.164 675.406 265.652 C 675.151 263.74 675.178 261.795 675.113 259.861 C 674.961 255.312 674.296 250.804 673.135 246.448 C 672.35 243.51 671.315 240.598 669.599 238.236 C 669.177 237.595 668.632 237.074 668.005 236.715 C 667.367 236.396 666.568 236.392 666.017 236.882 C 665.699 237.166 665.491 237.582 665.212 237.917 C 664.613 238.641 663.732 238.94 662.894 239.212 C 661.207 239.758 660.248 240.856 658.496 240.782 Z" fill="#3f3d56" id="path218" style=""/>
  <path d="M 643.764 239.893 C 643.655 240.52 643.53 241.143 643.406 241.767 C 642.658 245.492 641.886 249.211 641.089 252.923 C 640.95 253.681 640.742 254.419 640.467 255.124 C 639.969 256.294 639.125 257.225 638.56 258.354 C 637.994 259.482 637.76 261.018 638.49 262.016 C 638.956 262.653 639.699 262.914 640.404 263.117 C 641.072 263.311 641.833 263.466 642.41 263.035 C 643.025 262.575 643.186 261.638 643.276 260.802 C 643.657 257.257 643.76 253.645 644.615 250.208 C 644.901 249.06 645.267 247.94 645.634 246.824 L 647.8 240.221 C 648.34 238.573 648.888 236.882 648.894 235.122 C 648.928 234.782 648.837 234.441 648.643 234.181 C 648.529 234.075 648.396 233.997 648.253 233.955 C 647.34 233.618 644.994 233.341 644.376 234.489 C 644.072 235.055 644.219 236.362 644.154 237.027 C 644.059 237.988 643.929 238.944 643.764 239.893 Z" fill="#ffb8b8" id="path220" style=""/>
  <path d="M 670.881 235.863 C 672.317 240.52 673.904 245.112 675.644 249.636 C 675.865 250.171 676.05 250.724 676.196 251.292 C 676.312 251.798 676.364 252.32 676.439 252.835 C 676.836 255.52 677.988 258.213 680.046 259.572 C 680.404 259.842 680.821 259.986 681.25 259.99 C 682.101 259.932 682.706 258.985 682.94 258.046 C 683.103 257.39 683.148 256.702 683.072 256.025 C 683.065 255.852 683.013 255.685 682.926 255.543 C 682.822 255.426 682.695 255.34 682.557 255.291 C 681.3 254.721 680.017 253.925 679.384 252.557 C 679.104 251.874 678.913 251.149 678.818 250.405 L 677.59 243.254 C 677.444 242.404 677.298 241.553 677.096 240.718 C 676.931 240.035 676.729 239.364 676.527 238.693 L 675.185 234.238 L 674.198 230.958 C 674.172 230.679 673.942 230.485 673.701 230.538 L 670.939 230.535 C 669.106 230.535 670.544 234.769 670.881 235.863 Z" fill="#ffb8b8" id="path222" style=""/>
  <circle cx="761.38659" cy="80.47247" r="25.73246" fill="#ffb8b8" id="circle224" transform="matrix(0.245835, 0, 0, 0.281711, 470.829163, 174.471802)" style=""/>
  <path d="M 654.683 205.947 C 654.322 206.586 653.732 206.999 653.162 207.391 C 652.091 208.176 650.963 208.849 649.788 209.402 C 648.731 209.859 647.59 210.133 646.669 210.884 C 645.704 211.673 645.083 212.921 644.743 214.222 C 644.402 215.524 644.316 216.891 644.232 218.246 C 644.196 218.526 644.216 218.811 644.291 219.079 C 644.432 219.483 644.794 219.718 645.139 219.893 C 646.903 220.786 648.879 220.921 650.805 221.006 C 654.663 221.177 658.522 221.199 662.382 221.222 C 663.886 221.339 665.393 221.05 666.78 220.38 L 669.426 219.291 C 669.798 219.16 670.152 218.969 670.479 218.726 C 671.597 217.8 671.639 215.898 671.293 214.368 C 671.029 213.206 670.56 212.027 669.681 211.374 C 669.173 211.047 668.627 210.8 668.06 210.641 C 666.171 209.961 664.406 208.89 662.854 207.482 C 662.48 207.172 662.157 206.787 661.9 206.348 C 661.427 205.448 661.487 204.325 661.487 203.275 C 661.523 202.941 661.437 202.607 661.251 202.349 C 661.065 202.193 660.84 202.11 660.61 202.111 C 659.109 201.94 657.553 201.81 656.074 202.24 C 655.155 202.507 655.064 202.567 655.101 203.598 C 655.131 204.405 655.078 205.25 654.683 205.947 Z" fill="#ffb8b8" id="path226" style=""/>
  <polygon points="667.029 189.496 661.311 186.064 653.413 187.468 651.779 195.738 655.847 195.558 656.983 192.521 656.983 195.508 658.86 195.426 659.95 190.589 660.63 195.738 667.302 195.581 667.029 189.496" fill="#2f2e41" id="polygon228" style=""/>
  <path d="M 660.188 220.546 C 659.933 216.144 655.244 215.762 655.196 215.759 L 655.206 215.594 C 655.251 215.597 659.433 215.937 660.216 219.658 C 660.323 218.267 660.796 215.716 662.818 215.594 L 662.825 215.759 C 660.196 215.917 660.33 220.491 660.331 220.537 L 660.188 220.546 Z" opacity="0.1" id="path230" style=""/>
  <path d="M 658.818 219.276 L 644.555 216.064 C 644.243 215.925 643.898 216.145 643.836 216.523 L 643.32 217.748 C 642.866 218.695 642.593 219.741 642.52 220.818 L 642.202 223.553 C 642.187 224.014 642.056 224.461 641.826 224.839 C 641.67 225.025 641.489 225.181 641.288 225.299 C 640.808 225.57 640.373 225.937 640.004 226.382 C 639.663 226.855 639.494 227.549 639.745 228.09 C 640.15 228.964 641.303 228.928 641.898 229.647 C 642.446 230.307 642.34 231.385 642.025 232.222 C 641.82 232.761 641.539 233.299 641.562 233.887 C 641.628 234.557 641.991 235.14 642.521 235.431 C 643.046 235.71 643.612 235.871 644.19 235.902 C 645.415 236.043 646.647 236.084 647.876 236.025 C 648.495 236.035 649.109 235.898 649.679 235.624 C 650.232 235.312 650.696 234.695 650.705 233.989 C 650.722 232.824 649.568 231.903 649.714 230.751 C 649.724 230.636 649.76 230.527 649.819 230.435 C 650.017 230.155 650.405 230.269 650.707 230.174 C 651.189 230.022 651.387 229.324 651.279 228.766 C 651.172 228.207 650.855 227.739 650.614 227.239 C 650.183 226.348 649.993 225.332 650.071 224.318 C 651.168 224.625 649.75 225.784 649.905 227.066 C 650.287 230.21 651.523 233.807 651.027 236.931 C 650.945 237.211 650.976 237.518 651.112 237.769 C 651.213 237.884 651.341 237.966 651.481 238.004 C 653.298 238.657 655.226 237.782 657.097 237.38 C 658.403 237.133 659.724 237.019 661.046 237.04 C 662.996 237.026 664.945 237.09 666.894 237.237 C 667.385 237.274 667.901 237.311 668.347 237.07 C 668.791 236.829 669.119 236.203 668.913 235.691 C 670.446 235.657 671.888 236.763 673.416 236.615 C 675.061 236.455 676.313 234.915 677.391 233.48 C 677.691 233.146 677.906 232.726 678.015 232.264 C 678.095 231.736 677.894 231.214 677.738 230.71 C 677.565 230.148 677.444 229.565 677.378 228.973 C 677.309 228.603 677.347 228.217 677.489 227.875 C 677.688 227.49 678.096 227.308 678.331 226.951 C 678.807 226.229 678.365 225.157 677.742 224.601 C 677.119 224.044 676.328 223.742 675.783 223.086 C 675.021 222.169 674.914 220.798 674.722 219.551 C 674.554 218.451 674.272 217.331 673.631 216.489 C 672.99 215.648 671.915 215.16 671.01 215.574 C 670.732 215.726 670.462 215.895 670.2 216.08 C 669.665 216.374 669.097 216.583 668.512 216.703 C 665.26 217.543 662.09 220.012 658.818 219.276 Z" fill="#ff6584" id="path232" style=""/>
  <path d="M 637.727 256.495 C 637.727 256.495 645.19 260.042 642.824 262.128 C 640.457 264.214 635.542 259.625 635.724 258.999 C 635.906 258.373 634.996 256.912 634.996 256.912 L 637.727 256.495 Z" fill="#9f616a" id="path234" style=""/>
  <path d="M 631.172 228.54 L 633.539 231.043 L 634.085 238.345 L 635.906 246.064 C 635.906 246.064 639.001 253.366 638.455 254.826 C 637.909 256.286 639.001 256.703 639.001 256.703 L 634.814 258.581 C 634.814 258.581 630.262 252.74 630.262 251.489 C 630.262 250.237 631.172 228.54 631.172 228.54 Z" fill="#575a88" id="path236" style=""/>
  <path d="M 631.172 228.54 L 633.539 231.043 L 634.085 238.345 L 635.906 246.064 C 635.906 246.064 639.001 253.366 638.455 254.826 C 637.909 256.286 639.001 256.703 639.001 256.703 L 634.814 258.581 C 634.814 258.581 630.262 252.74 630.262 251.489 C 630.262 250.237 631.172 228.54 631.172 228.54 Z" opacity="0.1" id="path238" style=""/>
  <path d="M 653.565 309.739 C 653.565 309.739 652.655 314.538 652.473 314.954 C 652.29 315.372 655.932 316.832 655.932 316.832 L 660.301 313.285 C 660.301 313.285 658.481 308.696 658.481 307.862 L 653.565 309.739 Z" fill="#575a88" id="path240" style=""/>
  <path d="M 629.716 256.912 L 630.99 258.581 C 630.99 258.581 657.388 262.336 657.934 268.178 C 658.481 274.02 662.303 307.653 660.119 308.487 C 657.934 309.321 652.29 312.451 652.29 310.782 C 652.29 309.113 648.649 280.069 649.378 275.897 C 649.378 275.897 617.883 271.307 617.155 266.092 C 616.425 260.876 617.883 258.581 617.883 258.581 L 629.716 256.912 Z" fill="#2f2e41" id="path242" style=""/>
  <path d="M 629.716 256.912 L 630.99 258.581 C 630.99 258.581 657.388 262.336 657.934 268.178 C 658.481 274.02 662.303 307.653 660.119 308.487 C 657.934 309.321 652.29 312.451 652.29 310.782 C 652.29 309.113 648.649 280.069 649.378 275.897 C 649.378 275.897 617.883 271.307 617.155 266.092 C 616.425 260.876 617.883 258.581 617.883 258.581 L 629.716 256.912 Z" opacity="0.1" id="path244" style=""/>
  <path d="M 653.202 314.538 C 653.202 314.538 652.473 312.659 652.108 313.285 C 651.744 313.911 650.47 321.213 651.744 321.213 C 653.019 321.213 664.671 324.551 666.308 324.134 C 667.948 323.716 671.043 324.342 670.679 322.257 C 670.314 320.17 668.493 319.962 668.493 319.962 C 668.493 319.962 661.758 315.372 661.393 313.077 C 661.029 310.782 659.027 312.034 659.027 312.034 L 659.027 313.494 C 659.027 313.494 655.203 316.832 653.202 314.538 Z" fill="#2f2e41" id="path246" style=""/>
  <path d="M 618.611 212.684 C 618.611 212.684 619.885 219.778 617.155 220.404 C 614.424 221.03 620.613 225.202 620.613 225.202 L 624.619 227.706 L 627.531 224.368 C 627.531 224.368 624.892 218.213 626.894 213.623 C 628.897 209.033 618.611 212.684 618.611 212.684 Z" fill="#9f616a" id="path248" style=""/>
  <path d="M 627.531 224.368 L 624.619 227.706 L 620.613 225.202 C 620.613 225.202 614.424 221.03 617.155 220.404 C 618.911 220 619.009 216.922 618.858 214.776 C 618.809 214.075 618.726 213.376 618.611 212.684 C 618.611 212.684 628.897 209.033 626.894 213.623 C 626.59 214.332 626.379 215.089 626.267 215.869 C 625.654 219.993 627.531 224.368 627.531 224.368 Z" fill="#9f616a" id="path250" style=""/>
  <polygon points="637.727 309.693 637.727 314.491 644.644 314.491 645.19 312.615 644.463 307.607 637.727 309.693" fill="#575a88" id="polygon252" style=""/>
  <path d="M 609.144 261.085 C 609.144 261.085 609.144 273.394 613.513 273.811 C 617.883 274.228 633.539 276.523 633.539 276.523 C 633.539 276.523 634.449 296.968 636.088 303.643 C 637.727 310.32 636.27 310.737 637.727 311.154 C 639.183 311.571 645.372 310.111 645.19 308.651 C 645.008 307.19 644.28 270.264 644.28 270.264 C 644.28 270.264 645.919 262.336 624.072 258.581 L 609.144 261.085 Z" fill="#2f2e41" id="path254" style=""/>
  <path d="M 638.273 313.032 C 638.273 313.032 637.18 310.32 636.998 311.154 C 636.816 311.988 634.632 319.29 636.816 319.917 C 639.001 320.542 645.919 323.88 650.47 323.671 C 655.021 323.463 655.568 323.254 655.568 323.254 C 655.568 323.254 656.843 321.168 655.203 319.917 C 653.565 318.664 646.829 311.362 646.465 310.527 C 646.101 309.693 643.37 309.068 643.37 310.527 C 643.37 311.988 639.547 314.91 638.273 313.032 Z" fill="#2f2e41" id="path256" style=""/>
  <path d="M 626.894 215.313 C 626.59 216.022 626.379 216.779 626.267 217.558 C 625.362 218.186 624.755 218.026 623.617 218.026 C 621.929 218.026 621.248 215.553 620.158 214.27 C 620.073 213.079 618.611 214.375 618.611 214.375 C 618.611 214.375 628.897 210.724 626.894 215.313 Z" opacity="0.1" id="path258" style=""/>
  <circle cx="620.51887" cy="124.76949" r="28.36042" fill="#9f616a" id="circle260" transform="matrix(0.245835, 0, 0, 0.281711, 470.829163, 174.471802)" style=""/>
  <path d="M 633.539 231.043 C 633.539 231.043 632.629 238.554 632.083 241.266 C 631.536 243.978 630.808 256.495 630.444 258.164 C 630.08 259.833 627.895 260.25 623.526 259.625 C 623.252 259.585 622.976 259.561 622.7 259.554 C 620.009 259.456 616.931 260.609 614.081 261.514 C 612.443 262.036 610.879 262.474 609.508 262.545 C 607.432 262.653 606.824 260.016 606.896 257.162 C 606.963 254.507 607.621 251.659 608.234 250.653 C 609.339 248.843 608.252 232.585 608.659 227.224 L 608.659 227.221 C 608.722 226.403 608.818 225.84 608.962 225.619 C 610.054 223.95 617.155 219.778 617.951 219.947 C 618.743 220.116 625.529 224.993 625.529 224.993 C 627.167 224.993 627.115 222.957 627.115 222.957 C 627.115 222.957 628.259 225.411 630.444 226.037 C 632.629 226.662 633.539 231.043 633.539 231.043 Z" fill="#575a88" id="path262" style=""/>
  <path d="M 621.37 258.089 C 621.37 258.089 633.096 258.517 631.042 260.113 C 628.988 261.711 619.885 263.17 619.703 261.085 C 619.521 258.999 621.37 258.089 621.37 258.089 Z" fill="#9f616a" id="path264" style=""/>
  <path d="M 622.7 259.554 C 622.738 260.354 620.857 262.159 620.249 263.379 C 619.912 264.056 617.305 263.165 614.081 261.514 C 611.607 260.242 609.206 258.788 606.896 257.162 C 606.963 254.507 607.621 251.659 608.234 250.653 C 609.339 248.843 608.252 232.585 608.659 227.224 L 608.659 227.221 C 608.757 227.165 608.857 227.116 608.962 227.079 L 611.147 227.079 C 618.611 231.043 610.054 248.15 610.054 248.15 C 610.054 248.15 621.342 258.79 622.434 259.207 C 622.582 259.24 622.691 259.382 622.7 259.554 Z" opacity="0.1" id="path266" style=""/>
  <path d="M 611.147 225.827 L 608.962 225.827 C 608.962 225.827 606.959 226.453 605.321 230.626 C 603.682 234.799 597.675 247.733 602.954 252.74 C 608.234 257.747 619.521 263.589 620.249 262.128 C 620.978 260.668 623.526 258.372 622.434 257.955 C 621.342 257.537 610.054 246.899 610.054 246.899 C 610.054 246.899 618.611 229.791 611.147 225.827 Z" fill="#575a88" id="path268" style=""/>
  <path d="M 622.301 205.903 C 622.301 205.903 622.608 201.049 626.382 203.028 C 630.157 205.008 629.91 199.553 628.77 198.588 C 627.629 197.624 627.666 197.386 623.494 198.031 C 619.321 198.676 611.222 199.769 613.842 209.381 C 616.46 218.993 618.832 216.52 618.832 216.52 C 618.832 216.52 616.75 207.871 618.859 209.518 L 620.969 211.166 L 622.082 210.896 L 622.301 205.903 Z" fill="#2f2e41" id="path270" style=""/>
</svg>