<svg id="visual" viewBox="0 0 900 600" width="900" height="600" xmlns="http://www.w3.org/2000/svg" xmlns:xlink="http://www.w3.org/1999/xlink" version="1.1"><path d="M0 67L82 67L82 61L164 61L164 61L245 61L245 91L327 91L327 67L409 67L409 67L491 67L491 109L573 109L573 73L655 73L655 67L736 67L736 109L818 109L818 49L900 49L900 145L900 0L900 0L818 0L818 0L736 0L736 0L655 0L655 0L573 0L573 0L491 0L491 0L409 0L409 0L327 0L327 0L245 0L245 0L164 0L164 0L82 0L82 0L0 0Z" fill="#fa7268"></path><path d="M0 163L82 163L82 217L164 217L164 217L245 217L245 277L327 277L327 301L409 301L409 259L491 259L491 217L573 217L573 253L655 253L655 301L736 301L736 247L818 247L818 217L900 217L900 325L900 143L900 47L818 47L818 107L736 107L736 65L655 65L655 71L573 71L573 107L491 107L491 65L409 65L409 65L327 65L327 89L245 89L245 59L164 59L164 59L82 59L82 65L0 65Z" fill="#ea5e66"></path><path d="M0 247L82 247L82 289L164 289L164 313L245 313L245 355L327 355L327 343L409 343L409 295L491 295L491 271L573 271L573 343L655 343L655 355L736 355L736 295L818 295L818 265L900 265L900 361L900 323L900 215L818 215L818 245L736 245L736 299L655 299L655 251L573 251L573 215L491 215L491 257L409 257L409 299L327 299L327 275L245 275L245 215L164 215L164 215L82 215L82 161L0 161Z" fill="#d84a64"></path><path d="M0 553L82 553L82 559L164 559L164 493L245 493L245 553L327 553L327 541L409 541L409 511L491 511L491 547L573 547L573 553L655 553L655 523L736 523L736 517L818 517L818 469L900 469L900 517L900 359L900 263L818 263L818 293L736 293L736 353L655 353L655 341L573 341L573 269L491 269L491 293L409 293L409 341L327 341L327 353L245 353L245 311L164 311L164 287L82 287L82 245L0 245Z" fill="#c53762"></path><path d="M0 601L82 601L82 601L164 601L164 601L245 601L245 601L327 601L327 601L409 601L409 601L491 601L491 601L573 601L573 601L655 601L655 601L736 601L736 601L818 601L818 601L900 601L900 601L900 515L900 467L818 467L818 515L736 515L736 521L655 521L655 551L573 551L573 545L491 545L491 509L409 509L409 539L327 539L327 551L245 551L245 491L164 491L164 557L82 557L82 551L0 551Z" fill="#b0235f"></path></svg>