<?xml version="1.0" encoding="UTF-8" standalone="no"?>
<svg
   data-name="Layer 1"
   width="884.36525"
   height="726.51352"
   viewBox="0 0 884.36525 726.51352"
   version="1.1"
   id="svg288"
   sodipodi:docname="undraw_couple_re_94tl.svg"
   inkscape:version="1.2.2 (b0a84865, 2022-12-01)"
   xmlns:inkscape="http://www.inkscape.org/namespaces/inkscape"
   xmlns:sodipodi="http://sodipodi.sourceforge.net/DTD/sodipodi-0.dtd"
   xmlns="http://www.w3.org/2000/svg"
   xmlns:svg="http://www.w3.org/2000/svg">
  <defs
     id="defs292" />
  <sodipodi:namedview
     id="namedview290"
     pagecolor="#ffffff"
     bordercolor="#000000"
     borderopacity="0.25"
     inkscape:showpageshadow="2"
     inkscape:pageopacity="0.0"
     inkscape:pagecheckerboard="0"
     inkscape:deskcolor="#d1d1d1"
     showgrid="false"
     inkscape:zoom="1.2463454"
     inkscape:cx="456.93595"
     inkscape:cy="529.14707"
     inkscape:window-width="1440"
     inkscape:window-height="847"
     inkscape:window-x="0"
     inkscape:window-y="25"
     inkscape:window-maximized="1"
     inkscape:current-layer="svg288" />
  <circle
     cx="203.36525"
     cy="54"
     r="54"
     fill="#ff6584"
     id="circle156" />
  <path
     d="M896.68263,590.24324h-68V534.45186l24.234-.13617a17.99991,17.99991,0,0,0,16.97516-12.30762l17.02429-51.07275a18,18,0,0,0-17.07629-23.69208H828.68263v-24h51.66845A18,18,0,0,0,897.8935,409.276l11.72412-51a18,18,0,0,0-17.54242-22.03272H828.68263v-6a12,12,0,0,0-24,0v6h-425v-6a12,12,0,0,0-24,0v6H305.29005A18,18,0,0,0,287.74763,358.276l11.72412,51a18,18,0,0,0,17.54242,13.96728h38.66846v24H327.52479a17.99995,17.99995,0,0,0-17.13251,23.52045L327.7685,524.6899a18,18,0,0,0,17.23364,12.47924l10.68049-.06v53.13409h-55a17.99994,17.99994,0,0,0-18,17.99994v.00006a18,18,0,0,0,18,18h55v132a12,12,0,0,0,24,0v-132h425v132a12,12,0,0,0,24,0v-132h68a18,18,0,0,0,18-18v-.00006A17.99994,17.99994,0,0,0,896.68263,590.24324Zm-517-167h425v24h-425Zm0,167V536.97432l425-2.38763v55.65655Z"
     transform="translate(-157.81737 -86.74324)"
     fill="#e6e6e6"
     id="path158" />
  <path
     d="M458.63946,164.816c-4.38226-3.09332-9.17677-6.319-14.53916-6.19-12.97877.31209-19.97628,19.33837-32.94169,18.66928-8.26839-.42672-13.75723-8.82626-21.456-11.87189-10.023-3.96491-22.77811,3.78951-23.87157,14.51253l1.28721-1.17812a310.78279,310.78279,0,0,0,119.06438,5.5005Q472.41116,174.53716,458.63946,164.816Z"
     transform="translate(-157.81737 -86.74324)"
     fill="#e6e6e6"
     id="path200" />
  <path
     d="M645.42056,214.15965c-3.14425-2.21944-6.58428-4.53384-10.43177-4.44132-9.31219.22392-14.33287,13.87517-23.63547,13.3951-5.93253-.30617-9.87074-6.33279-15.39456-8.518-7.19147-2.8448-16.34317,2.719-17.12772,10.41266l.92357-.84529a222.985,222.985,0,0,0,85.428,3.94657Q655.30168,221.13451,645.42056,214.15965Z"
     transform="translate(-157.81737 -86.74324)"
     fill="#e6e6e6"
     id="path202" />
  <path
     d="M787.07164,145.74c-2.089-1.47455-4.37445-3.01218-6.93064-2.95072-6.18681.14877-9.52244,9.21836-15.70288,8.89941-3.94144-.20341-6.5579-4.20737-10.22781-5.65918-4.77785-1.89-10.858,1.80641-11.37927,6.91794l.6136-.56159a148.14651,148.14651,0,0,0,56.75648,2.622Q793.63643,150.3739,787.07164,145.74Z"
     transform="translate(-157.81737 -86.74324)"
     fill="#e6e6e6"
     id="path204" />
  <path
     d="M647.66533,525.5004A12.9539,12.9539,0,0,0,657.95761,510.516a13.36126,13.36126,0,0,0-.52268-2.05376l74.0461-70.7609-21.96518-7.378-68.92767,70.45059a13.06847,13.06847,0,0,0-7.43881,14.10216A12.629,12.629,0,0,0,647.66533,525.5004Z"
     transform="translate(-157.81737 -86.74324)"
     fill="#9e616a"
     id="path206" />
  <path
     d="M780.51124,362.32859s15.63819,3.46883,13.59315,22.25353-44.82427,57.77463-51.53715,64.27208-51.85295,27.781-51.85295,27.781L673.46072,457.64Z"
     transform="translate(-157.81737 -86.74324)"
     fill="#6c63ff"
     id="path208" />
  <polygon
     points="464.821 628.494 448.899 624.357 455.413 552.833 478.911 558.939 464.821 628.494"
     fill="#9e616a"
     id="polygon210" />
  <path
     d="M610.24038,680.48c-.06-.14068-5.96117-14.17952-2.08775-27.29475a23.0177,23.0177,0,0,0,.65853-3.86536,26.215,26.215,0,0,1,.80073-4.556,24.9621,24.9621,0,0,1,1.67024-3.8918,25.83248,25.83248,0,0,0,1.72572-4.02633c9.31965-31.16875,22.32329-73.52787,31.34718-98.32182,10.13349-27.8427,119.825-20.21477,126.22843-19.74407l19.43277-13.84521,7.2537,48.9744-69.08269,21.94857-.0561.01789-56.25694-.11695-1.99371,5.97278a11.67972,11.67972,0,0,1,1.162,8.44786,10.27367,10.27367,0,0,1-4.96757,6.73831l-1.53995.82921L645.7025,654.16916a27.65378,27.65378,0,0,1-5.06105,15.799l-.41019.56848-7.24473,16.03561-22.6581-5.887Z"
     transform="translate(-157.81737 -86.74324)"
     fill="#2f2e41"
     id="path212" />
  <path
     d="M622.54872,736.24907,563.249,720.83919l.17206-.84953A26.78226,26.78226,0,0,1,573.92649,703.261a21.22769,21.22769,0,0,1,17.87058-3.41626l.00146.00038,12.7171-6.49316,18.32463,14.55992,5.17651,1.34521Z"
     transform="translate(-157.81737 -86.74324)"
     fill="#2f2e41"
     id="path214" />
  <polygon
     points="508.377 662.998 492.042 662.997 484.271 591.634 508.38 591.635 508.377 662.998"
     fill="#9e616a"
     id="polygon216" />
  <ellipse
     cx="600.96572"
     cy="215.22911"
     rx="32.60247"
     ry="36.92615"
     fill="#9e616a"
     id="ellipse218" />
  <path
     d="M644.40209,727.57609c-.08217-.11773-8.21216-11.95775-7.66247-26.04618.0567-1.45319.949-2.84124,1.89374-4.31118.90425-1.40665,1.83951-2.8617,1.89846-4.26743.37017-8.82243.7734-17.48107,1.199-25.73535.27567-5.34976-1.12014-11.00849-2.47014-16.4811-1.44284-5.84905-2.93479-11.89725-2.52026-17.83564,2.31444-33.15019,12.65225-64.33163,17.286-69.58,10.2614-11.62225,73.05449-45.38573,75.72245-46.817l.10825-.05816,80.39857,10.22071.30874.03955.05772.34573c.05187.31083,5.05736,31.32056-6.62757,50.48562a30.05991,30.05991,0,0,1-20.442,14.41462c-34.42039,6.89974-83.937,11.914-88.32756,12.35141l-16.76449,88.58958a14.281,14.281,0,0,1-1.93338,15.97205l-1.374,1.50577-1.59609,8.43528-5.89731,8.95319H644.52842Z"
     transform="translate(-157.81737 -86.74324)"
     fill="#2f2e41"
     id="path220" />
  <path
     d="M721.88889,521.43924l15.145-25.73024-7.75124-45.5793,1.39869-64.72528,2.79243-9.64186c2.65194-9.09371,8.58233-16.59557,16.27067-20.58148l18.7973-9.74609a8.19008,8.19008,0,0,1,7.4135-.1,9.93538,9.93538,0,0,1,4.95342,5.8765c4.141.63609,30.59686,5.78856,36.32317,34.0222,2.12956,10.50037,3.34634,31.28659,3.61647,61.78214a517.39531,517.39531,0,0,1-3.63979,65.91092c-.192,1.60069-1.54792,3.12182-2.8592,4.59269-1.19624,1.342-2.43326,2.72955-2.60633,3.99289-.16926,1.23542.63721,2.54157,1.49092,3.924.92078,1.49134,1.87289,3.03341,1.62166,4.66155-.56582,3.66718-.89859,7.39251-1.22038,10.995a129.16924,129.16924,0,0,1-1.89836,14.76221,142.33791,142.33791,0,0,1-4.29527,14.99628c-1.15352,3.535-2.34627,7.19009-3.28359,10.76094l-.07456.28385-.2578.04978a.07005.07005,0,0,1-.01839.00233C803.54725,581.94827,802.60626,571.63217,721.88889,521.43924Z"
     transform="translate(-157.81737 -86.74324)"
     fill="#6c63ff"
     id="path222" />
  <path
     d="M674.98314,770.24324l-60.84052-.00255v-.87159a28.536,28.536,0,0,1,6.93707-18.96556,22.22384,22.22384,0,0,1,16.74375-7.85536h.00151l11.11332-9.54928,20.735,9.55074,5.311.00024Z"
     transform="translate(-157.81737 -86.74324)"
     fill="#2f2e41"
     id="path224" />
  <path
     d="M449.82516,470.12386l1.77032,19.78435s.76652,16.42618,3.194,20.05818c2.40919,3.61383,68.15044,4.07011,68.15044,4.07011s4.34382-23.41646,8.08532-43.91264Z"
     transform="translate(-157.81737 -86.74324)"
     fill="#ffb6b6"
     id="path226" />
  <polygon
     points="485.51 634.982 499.254 632.206 495.32 576.692 475.036 580.789 485.51 634.982"
     fill="#ffb6b6"
     id="polygon228" />
  <polygon
     points="437.326 643.115 451.335 643.115 458 587.874 437.324 587.875 437.326 643.115"
     fill="#ffb6b6"
     id="polygon230" />
  <path
     d="M617.56771,707.12658,590.0395,709.685,575.024,598.39736c-49.4955,8.51243-96.19,11.23938-136.57877.94185-13.67465-3.43841-22.03353-17.55828-18.67008-31.53767q.23586-.98028.54535-1.93955c4.83376-14.748,24.44076-28.91026,34.40974-45.1311l55.22718,22.66224L512.46,553.62646l70.73646-9.15352c14.22531-1.84079,27.217,8.45582,29.01765,22.99812q.14259,1.15181.18634,2.313Z"
     transform="translate(-157.81737 -86.74324)"
     fill="#2f2e41"
     id="path232" />
  <path
     d="M659.4193,683.691l-27.5282,2.55829L581.978,584.16833c-49.4955,8.51244-96.19,11.23938-136.57874.94185-13.67464-3.4384-22.03353-17.55828-18.67007-31.53767q.2358-.98016.54534-1.93954c4.83376-14.748,17.48681-25.183,27.45579-41.40389l72.81682,1.1061L519.414,539.39743l70.73646-9.15352c14.22532-1.84079,27.217,8.45583,29.01765,22.99812q.14259,1.15181.18634,2.313Z"
     transform="translate(-157.81737 -86.74324)"
     fill="#2f2e41"
     id="path234" />
  <circle
     cx="324.92843"
     cy="226.33046"
     r="33.77904"
     fill="#ffb6b6"
     id="circle236" />
  <path
     d="M465.41174,353.31547l27.1109,3.18952a5.53214,5.53214,0,0,1,4.75821,4.31316l4.31148,19.72906L528.469,412.19779s9.65111,18.09591,6.032,38.60464-5.20962,35.7476-5.20962,35.7476-72.09608,27.03184-74.50885,23.41268-3.19581-20.0584-3.19581-20.0584l-9.6511-107.36914s10.85753-18.0959,16.88951-18.0959C462.71805,364.308,462.21865,355.54628,465.41174,353.31547Z"
     transform="translate(-157.81737 -86.74324)"
     fill="#6c63ff"
     id="path238" />
  <polygon
     points="305.847 336.909 366.461 403.55 377.253 396.909 305.847 336.909"
     opacity="0.2"
     style="isolation:isolate"
     id="polygon240" />
  <ellipse
     cx="372.20691"
     cy="398.14765"
     rx="6.8838"
     ry="8.26056"
     fill="#6c63ff"
     id="ellipse242" />
  <path
     d="M627.6881,549.86814a13.84442,13.84442,0,0,1-11.51246-17.836l-84.83182-72.63953,23.98678-8.84626,79.15805,72.52644a13.91943,13.91943,0,0,1-6.80055,26.79533Z"
     transform="translate(-157.81737 -86.74324)"
     fill="#ffb6b6"
     id="path244" />
  <path
     d="M473.98767,380.7398s-17.15155,4.38676-14.10982,24.425,51.97377,59.97852,59.66788,66.65217,58.502,27.542,58.502,27.542l18.29347-21.09093Z"
     transform="translate(-157.81737 -86.74324)"
     fill="#6c63ff"
     id="path246" />
  <path
     d="M643.25529,522.98042a13.8444,13.8444,0,0,1-13.95166-16.00032l-94.37346-59.72092,22.46993-12.19525,88.74214,60.4228a13.91943,13.91943,0,0,1-2.887,27.49369Z"
     transform="translate(-157.81737 -86.74324)"
     fill="#ffb6b6"
     id="path248" />
  <path
     d="M466.88579,377.64625s-16.345,6.80148-10.46061,26.19629,60.03916,51.90369,68.61093,57.40476,61.8475,18.86625,61.8475,18.86625l15.07921-23.49671Z"
     transform="translate(-157.81737 -86.74324)"
     fill="#6c63ff"
     id="path250" />
  <path
     d="M498.11,280.78265c-11.71271-8.05537-22.02711-9.28241-30.49972-6.99772a11.13793,11.13793,0,0,0-4.45535-3.9562c-6.608-16.65041-26.71772-26.64982-43.9756-21.78893-17.36952,4.89232-29.35408,24.13258-26.08578,41.87958,2.02543,11.00042,8.94851,20.52611,11.73311,31.35932,5.39035,20.97118-7.75906,44.99364-28.32966,51.75371,19.47657,3.91074,40.91555-7.98605,47.90284-26.58223,3.39373-9.03245,3.59837-18.89421,4.02986-28.53355.4309-9.63933,1.20806-19.56845,5.5764-28.172A28.78992,28.78992,0,0,1,447.78441,276.377a10.98937,10.98937,0,0,0,1.60474,9.89319c-4.56757,5.72185-7.0539,11.9097-7.0539,15.61541-9.48863,17.34213,4.08027,32.23829,21.42277,41.7267a35.53014,35.53014,0,0,0,22.70046,3.95754l.72555-3.09718.983,2.78992s11.29119,37.29294,15.01559,39.48063c-1.41331-6.63689-3.03223-37.36661-3.819-43.84379-1.08923-8.81581,2.70778-21.94032,5.44677-29.92165a47.1114,47.1114,0,0,0,2.57935-15.28924V297.461l2.667,8.56653,9.70948-4.14194C517.95981,291.52464,519.7662,279.7625,498.11,280.78265Z"
     transform="translate(-157.81737 -86.74324)"
     fill="#2f2e41"
     id="path252" />
  <path
     d="M640.26517,547.11552A13.84441,13.84441,0,0,0,651.137,528.882L733.336,453.276,709.05021,445.287l-76.53278,75.29153a13.91943,13.91943,0,0,0,7.74774,26.53695Z"
     transform="translate(-157.81737 -86.74324)"
     fill="#9e616a"
     id="path254" />
  <path
     d="M787.86307,372.63606s17.29651,3.775,14.96823,23.90861-49.8112,61.78624-57.26348,68.7289-57.48712,29.602-57.48712,29.602l-19.03085-20.42805Z"
     transform="translate(-157.81737 -86.74324)"
     fill="#6c63ff"
     id="path256" />
  <path
     d="M636.5072,707.43143l20.95356-10.501,3.9492,9.21312,26.4965,5.35611a6.26129,6.26129,0,0,1,1.22667,11.89232l-25.601,10.97384-8.31909-7.22169,2.18342,9.85174-9.65259,4.13758Z"
     transform="translate(-157.81737 -86.74324)"
     fill="#2f2e41"
     id="path258" />
  <path
     d="M591.48688,723.36875l23.396-1.39642v10.02386l22.24324,15.362a6.26129,6.26129,0,0,1-3.55787,11.41375H605.71443l-4.801-9.91514-1.87456,9.91514h-10.502Z"
     transform="translate(-157.81737 -86.74324)"
     fill="#2f2e41"
     id="path260" />
  <path
     d="M803.47014,281.98655c-4.26262-5.51434-12.93646-7.86909-18.48035-3.64493,4.3084-2.787,5.674-8.90213,3.86057-13.70222-1.81338-4.80008-6.21745-8.27836-11.03313-10.05-4.81562-1.77167-10.04415-2.04286-15.17535-2.02358-6.69626.02516-13.56019.55483-19.65463,3.32947-6.09438,2.77464-11.33967,8.17825-12.3373,14.79984a13.14293,13.14293,0,1,0-1.841,25.16422c3.40408-.7297,6.3669-2.7669,9.6133-4.02428,3.24646-1.25739,7.31069-1.57537,9.87039.78439,3.48223,3.21019,2.891,10.108,7.35514,11.68971,2.46675.874,5.20155-.524,7.78528-.108,3.0672.49393,5.22121,3.51465,5.72774,6.57981s-.274,6.18054-1.04869,9.18909q-2.585,10.03871-5.16993,20.0774l2.0217-.50781a45.3483,45.3483,0,0,0,42.17689-37.57882C808.32418,295.09229,807.73271,287.501,803.47014,281.98655Z"
     transform="translate(-157.81737 -86.74324)"
     fill="#2f2e41"
     id="path262" />
</svg>
